<mxfile host="app.diagrams.net" modified="2023-12-15T10:33:28.083Z" agent="Mozilla/5.0 (Windows NT 10.0; Win64; x64) AppleWebKit/537.36 (KHTML, like Gecko) Chrome/119.0.0.0 Safari/537.36 Edg/119.0.0.0" version="22.1.9" etag="kLB5uHcgdzLq6ypGDer5" type="github">
  <diagram name="Page-1" id="6C0mYFZkfufV-dC7n5Ci">
    <mxGraphModel>
      <root>
        <mxCell id="0" />
        <mxCell id="1" parent="0" />
      </root>
    </mxGraphModel>
  </diagram>
</mxfile>
